<svg xmlns="http://www.w3.org/2000/svg" viewBox="0 0 1998 1998"><defs><style>.cls-1{fill:#fff;}</style></defs><g id="Calque_2" data-name="Calque 2"><g id="Calque_1-2" data-name="Calque 1"><path d="M0,1940V58a23.5,23.5,0,0,0,.92-2.76C6.27,28.18,22.22,10.65,48.44,2.4,51.57,1.41,54.81.79,58,0H1940a23.65,23.65,0,0,0,2.77.92c26.85,5.3,44.37,21,52.68,47.05,1,3.28,1.71,6.68,2.55,10V1940a21.73,21.73,0,0,0-.91,2.76c-5.31,26.84-21.06,44.36-47,52.69-3.28,1.06-6.69,1.71-10,2.55H58a23.8,23.8,0,0,0-2.78-.92c-26.84-5.3-44.34-21.07-52.68-47C1.49,1946.75.84,1943.34,0,1940Zm241.15-548H247c71,0,142,.26,213-.19a315.73,315.73,0,0,0,51.68-4.13c65.88-11.4,116.2-46.14,150-103.93,21.25-36.32,28.73-76.25,28.7-117.93q-.11-166-.12-331.94a323.45,323.45,0,0,0-2.35-39.36c-7.69-61.37-36.6-110.62-86.25-147.38-38.87-28.78-83.3-41-131.15-41.22-75.15-.34-150.3-.14-225.45-.15a37.06,37.06,0,0,0-3.89.41ZM1252,605.75c.35,1.62.52,2.59.77,3.53q7.9,29.91,15.84,59.81,77.76,293.24,155.58,586.46c4,14.92,7.32,30.2,13.17,44.4,10.29,24.94,24.33,47.83,44.62,66.18,25.74,23.27,55.66,31.49,89.32,22.51a90.83,90.83,0,0,0,27.85-13c30.44-21.17,48-51.93,61-85.7q87.29-328.9,174.59-657.82c2.28-8.6,4.48-17.22,6.74-25.93a14,14,0,0,0-2.06-.42q-74.49,0-149-.11c-3.51,0-3.94,1.89-4.61,4.47q-15.36,59.43-30.86,118.81-53.43,205.49-106.88,411c-.31,1.19-.83,2.34-1.52,4.26-.66-2.15-1.1-3.4-1.43-4.67Q1476.58,875.35,1408,611.15c-1-4-2.42-5.53-6.85-5.51-47.83.19-95.66.11-143.49.11Zm-84.1,0H913.52c-15,0-30-.28-45,.23-53.7,1.81-93.48,42.9-93.49,96.62q-.1,296.48,0,592.95a96.46,96.46,0,0,0,1.54,17.88c9.08,47,47.25,78.51,95.23,78.54q145.49.11,291,0h5V1251.34H916.05V1069.07h153.59V928.59H916.07V746.31h251.86Z"/><path class="cls-1" d="M241.15,1392V606.18a37.06,37.06,0,0,1,3.89-.41c75.15,0,150.3-.19,225.45.15,47.85.21,92.28,12.44,131.15,41.22,49.65,36.76,78.56,86,86.25,147.38a323.45,323.45,0,0,1,2.35,39.36q.27,166,.12,331.94c0,41.68-7.45,81.61-28.7,117.93-33.81,57.79-84.13,92.53-150,103.93a315.73,315.73,0,0,1-51.68,4.13c-71,.45-142,.19-213,.19ZM382,747v504.48h6.14c23.66,0,47.33-.49,71,.14s44-7.15,62.55-21.11c12.12-9.14,20.76-20.91,24.23-35.63a133.34,133.34,0,0,0,3.75-30.08q.39-165.94.07-331.89a114.89,114.89,0,0,0-2.24-23.8c-7-32.57-39.64-60.52-74.12-62-29.77-1.25-59.63-.48-89.44-.59A10.66,10.66,0,0,0,382,747Z"/><path class="cls-1" d="M1252,605.75h5.65c47.83,0,95.66.08,143.49-.11,4.43,0,5.82,1.54,6.85,5.51q68.51,264.21,137.2,528.36c.33,1.27.77,2.52,1.43,4.67.69-1.92,1.21-3.07,1.52-4.26q53.46-205.49,106.88-411,15.43-59.4,30.86-118.81c.67-2.58,1.1-4.48,4.61-4.47q74.49.18,149,.11a14,14,0,0,1,2.06.42c-2.26,8.71-4.46,17.33-6.74,25.93Q1747.54,961,1660.23,1290c-13.06,33.77-30.61,64.53-61,85.7a90.83,90.83,0,0,1-27.85,13c-33.66,9-63.58.76-89.32-22.51-20.29-18.35-34.33-41.24-44.62-66.18-5.85-14.2-9.2-29.48-13.17-44.4q-77.87-293.21-155.58-586.46-7.94-29.91-15.84-59.81C1252.55,608.34,1252.38,607.37,1252,605.75Z"/><path class="cls-1" d="M1167.93,605.75V746.31H916.07V928.59h153.57v140.48H916.05v182.27H1167.8V1392h-5q-145.5,0-291,0c-48,0-86.15-31.51-95.23-78.54a96.46,96.46,0,0,1-1.54-17.88q-.1-296.47,0-592.95c0-53.72,39.79-94.81,93.49-96.62,15-.51,30-.23,45-.23h254.41Z"/><path d="M382,747a10.66,10.66,0,0,1,1.91-.45c29.81.11,59.67-.66,89.44.59,34.48,1.45,67.14,29.4,74.12,62a114.89,114.89,0,0,1,2.24,23.8q.21,165.95-.07,331.89a133.34,133.34,0,0,1-3.75,30.08c-3.47,14.72-12.11,26.49-24.23,35.63-18.52,14-38.91,21.75-62.55,21.11s-47.31-.14-71-.14H382Z"/></g></g></svg>